<svg xmlns="http://www.w3.org/2000/svg" viewBox="0 0 512 512"><path fill="#4fc3f7" d="M194.205 28.962V236.72h123.586V28.962z"/><path fill="#8d6e63" d="M353.104 0v18.962a10 10 0 0 1-10.002 10.002H168.898a10.01 10.01 0 0 1-10.002-10.002V0"/><path fill="#ff3d00" d="M370.759 332.902c0 63.382-51.377 114.759-114.759 114.759s-114.758-51.377-114.758-114.759 51.377-114.759 114.759-114.759 114.758 51.377 114.758 114.759"/><path fill="#d84315" d="M344.276 332.902c0 48.75-39.525 88.276-88.276 88.276s-88.275-39.526-88.275-88.276 39.525-88.276 88.276-88.276 88.275 39.526 88.275 88.276"/><path fill="#6d4c41" d="M256 315.247c-9.737 0-17.655 7.918-17.655 17.655s7.918 17.655 17.655 17.655 17.655-7.918 17.655-17.655-7.918-17.655-17.655-17.655m0 52.965c-19.474 0-35.31-15.837-35.31-35.31s15.837-35.31 35.31-35.31 35.31 15.837 35.31 35.31-15.836 35.31-35.31 35.31"/><path fill="#ff3d00" d="M256 244.281c-2.993 0-5.932.419-8.828.781v87.357c0 4.873 4.666 8.828 8.828 8.828s8.828-3.955 8.828-8.828v-87.357c-2.896-.362-5.835-.781-8.828-.781"/></svg>